<svg width="397" height="92" viewBox="0 0 397 92" fill="none" xmlns="http://www.w3.org/2000/svg">
<path d="M169.88 25.1752V61.0195C169.88 68.9138 167.815 74.7811 163.684 78.6216C159.553 82.462 153.517 84.3823 145.577 84.3823C141.393 84.3823 137.423 83.8755 133.667 82.8621C129.912 81.8486 126.8 80.3818 124.332 78.4616L129.322 69.5005C131.146 70.994 133.453 72.1675 136.242 73.0209C139.032 73.9277 141.822 74.3811 144.612 74.3811C148.957 74.3811 152.149 73.3943 154.188 71.4207C156.28 69.5005 157.326 66.5668 157.326 62.6197V60.7795C154.054 64.3532 149.494 66.1401 143.646 66.1401C139.676 66.1401 136.028 65.2867 132.702 63.5798C129.429 61.8196 126.827 59.3659 124.896 56.2189C122.964 53.0719 121.999 49.4448 121.999 45.3376C121.999 41.2305 122.964 37.6034 124.896 34.4563C126.827 31.3093 129.429 28.8823 132.702 27.1754C136.028 25.4152 139.676 24.5351 143.646 24.5351C149.923 24.5351 154.698 26.5887 157.97 30.6959V25.1752H169.88ZM146.141 55.8989C149.467 55.8989 152.176 54.9388 154.268 53.0185C156.414 51.045 157.487 48.4847 157.487 45.3376C157.487 42.1906 156.414 39.6569 154.268 37.7367C152.176 35.7631 149.467 34.7764 146.141 34.7764C142.814 34.7764 140.078 35.7631 137.932 37.7367C135.786 39.6569 134.713 42.1906 134.713 45.3376C134.713 48.4847 135.786 51.045 137.932 53.0185C140.078 54.9388 142.814 55.8989 146.141 55.8989Z" fill="#191919"/>
<path d="M199.027 24.5351C205.733 24.5351 210.883 26.1353 214.478 29.3357C218.072 32.4827 219.869 37.2566 219.869 43.6574V68.2203H208.12V62.8597C205.76 66.8602 201.361 68.8604 194.923 68.8604C191.597 68.8604 188.7 68.3003 186.232 67.1802C183.818 66.0601 181.967 64.5132 180.679 62.5397C179.392 60.5661 178.748 58.3258 178.748 55.8189C178.748 51.8184 180.25 48.6713 183.254 46.3777C186.312 44.0841 191.006 42.9373 197.337 42.9373H207.316C207.316 40.217 206.484 38.1368 204.821 36.6966C203.158 35.2031 200.663 34.4563 197.337 34.4563C195.03 34.4563 192.75 34.8297 190.497 35.5764C188.297 36.2699 186.42 37.23 184.864 38.4568L180.357 29.7358C182.718 28.0822 185.534 26.8021 188.807 25.8953C192.133 24.9885 195.54 24.5351 199.027 24.5351ZM198.061 60.4594C200.207 60.4594 202.112 59.9794 203.775 59.0192C205.438 58.0058 206.618 56.5389 207.316 54.6187V50.2182H198.705C193.555 50.2182 190.98 51.8984 190.98 55.2588C190.98 56.859 191.597 58.1391 192.831 59.0992C194.118 60.006 195.862 60.4594 198.061 60.4594Z" fill="#191919"/>
<path d="M243.222 30.8559C244.724 28.7756 246.736 27.2021 249.257 26.1353C251.832 25.0685 254.783 24.5351 258.109 24.5351V36.0565C256.714 35.9498 255.775 35.8965 255.293 35.8965C251.698 35.8965 248.882 36.9099 246.843 38.9368C244.804 40.9104 243.785 43.8974 243.785 47.8979V68.2203H231.231V25.1752H243.222V30.8559Z" fill="#191919"/>
<path d="M282.8 24.5351C289.506 24.5351 294.657 26.1353 298.251 29.3357C301.846 32.4827 303.643 37.2566 303.643 43.6574V68.2203H291.894V62.8597C289.533 66.8602 285.134 68.8604 278.696 68.8604C275.37 68.8604 272.473 68.3003 270.005 67.1802C267.591 66.0601 265.74 64.5132 264.453 62.5397C263.165 60.5661 262.521 58.3258 262.521 55.8189C262.521 51.8184 264.023 48.6713 267.028 46.3777C270.086 44.0841 274.78 42.9373 281.11 42.9373H291.089C291.089 40.217 290.258 38.1368 288.594 36.6966C286.931 35.2031 284.437 34.4563 281.11 34.4563C278.804 34.4563 276.523 34.8297 274.27 35.5764C272.071 36.2699 270.193 37.23 268.637 38.4568L264.131 29.7358C266.491 28.0822 269.308 26.8021 272.58 25.8953C275.907 24.9885 279.313 24.5351 282.8 24.5351ZM281.835 60.4594C283.981 60.4594 285.885 59.9794 287.548 59.0192C289.211 58.0058 290.392 56.5389 291.089 54.6187V50.2182H282.478C277.328 50.2182 274.753 51.8984 274.753 55.2588C274.753 56.859 275.37 58.1391 276.604 59.0992C277.892 60.006 279.635 60.4594 281.835 60.4594Z" fill="#191919"/>
<path d="M350.654 58.6192V68.2203H312.027V60.6994L334.077 34.7764H312.59V25.1752H349.93V32.6961L327.88 58.6192H350.654ZM347.516 8.13318L336.893 19.6545H325.788L315.166 8.13318H324.339L331.341 14.1339L338.342 8.13318H347.516Z" fill="#191919"/>
<path d="M376.161 24.5351C382.867 24.5351 388.018 26.1353 391.612 29.3357C395.207 32.4827 397.004 37.2566 397.004 43.6574V68.2203H385.255V62.8597C382.894 66.8602 378.495 68.8604 372.057 68.8604C368.731 68.8604 365.834 68.3003 363.366 67.1802C360.952 66.0601 359.101 64.5132 357.814 62.5397C356.526 60.5661 355.882 58.3258 355.882 55.8189C355.882 51.8184 357.384 48.6713 360.389 46.3777C363.447 44.0841 368.141 42.9373 374.471 42.9373H384.45C384.45 40.217 383.619 38.1368 381.955 36.6966C380.292 35.2031 377.798 34.4563 374.471 34.4563C372.165 34.4563 369.884 34.8297 367.631 35.5764C365.432 36.2699 363.554 37.23 361.998 38.4568L357.492 29.7358C359.852 28.0822 362.669 26.8021 365.941 25.8953C369.268 24.9885 372.674 24.5351 376.161 24.5351ZM375.196 60.4594C377.342 60.4594 379.246 59.9794 380.909 59.0192C382.572 58.0058 383.753 56.5389 384.45 54.6187V50.2182H375.839C370.689 50.2182 368.114 51.8984 368.114 55.2588C368.114 56.859 368.731 58.1391 369.965 59.0992C371.253 60.006 372.996 60.4594 375.196 60.4594Z" fill="#191919"/>
<g clip-path="url(#clip0_813_3740)">
<path d="M8.436 42.9254C8.67617 42.4221 10.7581 38.8234 11.5684 37.8344C12.3788 36.8454 16.3802 30.3858 25.3557 25.4527C34.3311 20.5196 44.0136 20.4051 44.3677 20.3884C44.5797 20.3783 45.3554 20.3623 45.9442 20.351C46.19 20.3422 46.4256 20.338 46.6501 20.338C46.6501 20.338 46.3392 20.3434 45.9442 20.351C40.3608 20.5514 29.5008 23.1625 23.2676 34.3289C21.4057 37.6644 20.7982 40.7614 20.5563 45.072C20.4248 49.4817 20.9518 54.6721 24.1163 59.8769C28.0368 65.9162 33.1967 69.4121 39.3382 71.1464C41.4248 71.7357 43.7533 72.1082 46.1492 72.2501C48.768 72.4052 51.3988 72.3502 54.0048 72.2501C54.8026 72.2195 56.5945 72.1676 58.5846 71.9706C64.5489 71.3801 69.9855 69.7535 70.7275 69.5315L70.7334 69.5297C71.7245 69.2332 89.7657 63.6605 91.946 47.7581C91.9463 50.364 91.8784 52.8046 91.5979 55.0816C89.1292 75.1174 76.75 82.813 73.1115 85.0747C69.4659 87.3408 65.3755 88.9666 61.7602 89.9629C56.1765 91.6536 47.5653 92.4625 39.0655 91.038C36.2276 90.3671 30.7587 90.1368 21.5656 84.5866C12.3724 79.0364 7.34765 70.8775 7.34765 70.8775C5.57464 68.2029 4.05878 65.6696 2.39135 60.7686C4.52639 49.5646 8.19583 43.4287 8.436 42.9254Z" fill="#9573F5"/>
<path d="M2.83461 30.514C-0.446709 41.2662 -0.932371 50.7232 2.39943 60.7822C7.04812 35.6614 23.0157 20.3394 46.8049 20.3394C50.4981 20.3394 58.0159 20.3394 68.4356 20.3394L86.18 0.178885L51.4795 0.178886C28.2111 0.178885 10.4909 10.3534 2.83461 30.514Z" fill="#6837F1"/>
<path d="M46.7359 72.2895C86.4788 73.8191 91.9355 51.4808 91.9355 47.7766L64.7628 47.7766C65.8031 48.5247 67.2279 49.9166 68.2267 51.7086C69.1415 53.3499 69.7259 55.6635 69.7259 57.39C69.7259 66.0238 61.1867 71.9067 46.7359 72.2895Z" fill="#D2C3FB"/>
</g>
<defs>
<clipPath id="clip0_813_3740">
<rect width="92.4627" height="92.0072" fill="white"/>
</clipPath>
</defs>
</svg>
