<svg xmlns="http://www.w3.org/2000/svg" viewBox="0 0 1320 780" font-family="Inter, 'Segoe UI', Roboto, sans-serif">
  <defs>
    <linearGradient id="bg" x1="0" y1="0" x2="0" y2="1">
      <stop offset="0" stop-color="#0b1019"/><stop offset="1" stop-color="#070a12"/>
    </linearGradient>
    <linearGradient id="bus" x1="0" y1="0" x2="1" y2="0">
      <stop offset="0" stop-color="#3b2a6b"/><stop offset="0.5" stop-color="#4434a0"/><stop offset="1" stop-color="#3b2a6b"/>
    </linearGradient>
    <marker id="arr" markerWidth="9" markerHeight="9" refX="7" refY="3" orient="auto">
      <path d="M0,0 L7,3 L0,6 Z" fill="#9fb0cc"/>
    </marker>
    <marker id="arrS" markerWidth="9" markerHeight="9" refX="2" refY="3" orient="auto">
      <path d="M7,0 L0,3 L7,6 Z" fill="#9fb0cc"/>
    </marker>
    <marker id="arrA" markerWidth="9" markerHeight="9" refX="7" refY="3" orient="auto">
      <path d="M0,0 L7,3 L0,6 Z" fill="#f5c32d"/>
    </marker>
    <marker id="arrP" markerWidth="9" markerHeight="9" refX="7" refY="3" orient="auto">
      <path d="M0,0 L7,3 L0,6 Z" fill="#c084fc"/>
    </marker>
    <filter id="sh" x="-20%" y="-20%" width="140%" height="140%">
      <feDropShadow dx="0" dy="4" stdDeviation="6" flood-color="#000" flood-opacity="0.45"/>
    </filter>
    <style>
      .ttl{fill:#e8edf6;font-size:13.5px;font-weight:700}
      .sub{fill:#8b95a9;font-size:10.5px}
      .ico{font-size:19px}
      .lbl{fill:#9fb0cc;font-size:10px;font-weight:600}
      .lblm{fill:#6f7b93;font-size:9.5px}
      .grp{fill:#5b647a;font-size:10px;font-weight:700;letter-spacing:1.5px}
      .flow{stroke:#5b6680;stroke-width:1.6;fill:none}
      .flowA{stroke:#f5c32d;stroke-width:1.6;fill:none;stroke-dasharray:5 4}
      .flowP{stroke:#c084fc;stroke-width:1.6;fill:none}
    </style>
  </defs>

  <rect width="1320" height="780" fill="url(#bg)"/>
  <text x="660" y="44" text-anchor="middle" fill="#e8edf6" font-size="26" font-weight="800">ScreenSmart — Streaming Architecture</text>
  <text x="660" y="70" text-anchor="middle" fill="#8b95a9" font-size="13">Event-driven scatter-gather screening over Kafka, backed by one Postgres — with a local-LLM assistant</text>

  <!-- group labels -->
  <text x="70"   y="128" class="grp">PRODUCERS</text>
  <text x="520"  y="128" class="grp">SCREENING ENGINES</text>
  <text x="980"  y="128" class="grp">JOIN</text>
  <text x="70"   y="452" class="grp">DATA &amp; SERVE</text>
  <text x="1040" y="452" class="grp" fill="#c084fc">AI ASSISTANT</text>

  <!-- ===================== Kafka event bus ===================== -->
  <rect x="70" y="338" width="1180" height="58" rx="11" fill="url(#bus)" stroke="#6a5bd0" stroke-width="1.5" filter="url(#sh)"/>
  <text x="660" y="362" text-anchor="middle" fill="#fff" font-size="14" font-weight="800">⚡  APACHE KAFKA</text>
  <text x="660" y="380" text-anchor="middle" fill="#cdc6f5" font-size="10.5">KRaft event bus · screening.txns · results.name · results.exposure · screening.verdicts</text>

  <!-- ===================== ABOVE: producers + engines ===================== -->
  <rect x="70" y="150" width="175" height="86" rx="13" fill="#101726" stroke="#2b3a57" filter="url(#sh)"/>
  <rect x="70" y="150" width="175" height="4" rx="2" fill="#38bdf8"/>
  <text x="86" y="190" class="ico">📥</text>
  <text x="116" y="184" class="ttl">Ingest gateway</text>
  <text x="116" y="204" class="sub">POST /ingest · /replay</text>

  <rect x="275" y="150" width="175" height="86" rx="13" fill="#101726" stroke="#2b3a57" filter="url(#sh)"/>
  <rect x="275" y="150" width="175" height="4" rx="2" fill="#38bdf8"/>
  <text x="291" y="190" class="ico">⚙️</text>
  <text x="321" y="184" class="ttl">Generator</text>
  <text x="321" y="204" class="sub">continuous live feed</text>

  <rect x="520" y="150" width="195" height="86" rx="13" fill="#101726" stroke="#2b4f4a" filter="url(#sh)"/>
  <rect x="520" y="150" width="195" height="4" rx="2" fill="#5eead4"/>
  <text x="536" y="190" class="ico">🧠</text>
  <text x="566" y="184" class="ttl">Name worker</text>
  <text x="566" y="204" class="sub">name + identity model</text>

  <rect x="745" y="150" width="195" height="86" rx="13" fill="#101726" stroke="#2b4f4a" filter="url(#sh)"/>
  <rect x="745" y="150" width="195" height="4" rx="2" fill="#5eead4"/>
  <text x="761" y="190" class="ico">🕸️</text>
  <text x="791" y="184" class="ttl">Exposure worker</text>
  <text x="791" y="204" class="sub">counterparty graph hops</text>

  <rect x="980" y="150" width="195" height="86" rx="13" fill="#101726" stroke="#43356f" filter="url(#sh)"/>
  <rect x="980" y="150" width="195" height="4" rx="2" fill="#a78bfa"/>
  <text x="996" y="190" class="ico">🔀</text>
  <text x="1026" y="184" class="ttl">Accumulator</text>
  <text x="1026" y="204" class="sub">join by txn_id · worst-of</text>

  <!-- ===================== BELOW: data &amp; serve ===================== -->
  <rect x="70" y="470" width="175" height="86" rx="13" fill="#101726" stroke="#2b3a57" filter="url(#sh)"/>
  <rect x="70" y="470" width="175" height="4" rx="2" fill="#38bdf8"/>
  <text x="86" y="510" class="ico">📦</text>
  <text x="116" y="504" class="ttl">Sanctions ingest</text>
  <text x="116" y="524" class="sub">OFAC · OFSI · UN · OS</text>

  <rect x="300" y="470" width="185" height="86" rx="13" fill="#101726" stroke="#5a4a1f" filter="url(#sh)"/>
  <rect x="300" y="470" width="185" height="4" rx="2" fill="#f5c32d"/>
  <text x="316" y="510" class="ico">🗄️</text>
  <text x="346" y="504" class="ttl">PostgreSQL</text>
  <text x="346" y="524" class="sub">verdicts · graph · index</text>

  <rect x="560" y="470" width="185" height="86" rx="13" fill="#101726" stroke="#1f5a3a" filter="url(#sh)"/>
  <rect x="560" y="470" width="185" height="4" rx="2" fill="#28e68c"/>
  <text x="576" y="510" class="ico">🛰️</text>
  <text x="606" y="504" class="ttl">WS gateway</text>
  <text x="606" y="524" class="sub">REST + WebSocket</text>

  <rect x="820" y="470" width="185" height="86" rx="13" fill="#101726" stroke="#1f5a3a" filter="url(#sh)"/>
  <rect x="820" y="470" width="185" height="4" rx="2" fill="#28e68c"/>
  <text x="836" y="510" class="ico">🖥️</text>
  <text x="866" y="504" class="ttl">Frontend</text>
  <text x="866" y="524" class="sub">live dots + review desk</text>

  <!-- ===================== AI assistant (chatbot + local LLM) ===================== -->
  <rect x="1040" y="470" width="200" height="86" rx="13" fill="#160f24" stroke="#5b3f8c" filter="url(#sh)"/>
  <rect x="1040" y="470" width="200" height="4" rx="2" fill="#c084fc"/>
  <text x="1056" y="510" class="ico">🤖</text>
  <text x="1086" y="504" class="ttl">Chatbot</text>
  <text x="1086" y="524" class="sub">LangGraph · explains flags</text>

  <rect x="1040" y="600" width="200" height="86" rx="13" fill="#160f24" stroke="#5b3f8c" filter="url(#sh)"/>
  <rect x="1040" y="600" width="200" height="4" rx="2" fill="#c084fc"/>
  <text x="1056" y="640" class="ico">🦙</text>
  <text x="1086" y="634" class="ttl">Ollama</text>
  <text x="1086" y="654" class="sub">llama3.2 · local LLM · GPU</text>

  <!-- ===================== arrows: producers -> bus ===================== -->
  <line x1="157" y1="236" x2="157" y2="337" class="flow" marker-end="url(#arr)"/>
  <text x="163" y="295" class="lbl">screening.txns</text>
  <line x1="362" y1="236" x2="362" y2="337" class="flow" marker-end="url(#arr)"/>
  <text x="368" y="295" class="lblm">txns</text>

  <line x1="600" y1="337" x2="600" y2="236" class="flow" marker-end="url(#arr)"/>
  <line x1="635" y1="236" x2="635" y2="337" class="flow" marker-end="url(#arr)"/>
  <text x="540" y="266" class="lblm">consume txns</text>
  <text x="618" y="320" class="lbl">results.name</text>

  <line x1="825" y1="337" x2="825" y2="236" class="flow" marker-end="url(#arr)"/>
  <line x1="860" y1="236" x2="860" y2="337" class="flow" marker-end="url(#arr)"/>
  <text x="765" y="266" class="lblm">consume txns</text>
  <text x="838" y="320" class="lbl">results.exposure</text>

  <line x1="1045" y1="337" x2="1045" y2="236" class="flow" marker-end="url(#arr)"/>
  <line x1="1085" y1="236" x2="1085" y2="337" class="flow" marker-end="url(#arr)"/>
  <text x="985" y="266" class="lblm">txns + results</text>
  <text x="1063" y="320" class="lbl">screening.verdicts</text>

  <!-- ===================== arrows: bus -> serve / data ===================== -->
  <line x1="652" y1="397" x2="652" y2="469" class="flow" marker-end="url(#arr)"/>
  <text x="660" y="440" class="lbl">screening.verdicts</text>

  <path d="M1010,236 C1010,300 393,300 393,469" class="flowA" marker-end="url(#arrA)"/>
  <text x="640" y="293" class="lbl" fill="#f5c32d">upsert dossier</text>

  <line x1="246" y1="513" x2="299" y2="513" class="flow" marker-end="url(#arr)"/>
  <text x="250" y="505" class="lblm">entities</text>

  <line x1="486" y1="513" x2="559" y2="513" class="flow" marker-end="url(#arr)" marker-start="url(#arrS)"/>
  <text x="495" y="505" class="lblm">queries</text>

  <line x1="746" y1="513" x2="819" y2="513" class="flow" marker-end="url(#arr)"/>
  <text x="752" y="505" class="lblm">REST · WS</text>

  <!-- frontend -> chatbot (Explain) ; chatbot -> ollama (LLM) -->
  <line x1="1006" y1="513" x2="1039" y2="513" class="flowP" marker-end="url(#arrP)"/>
  <text x="1000" y="505" class="lblm" fill="#c084fc">explain</text>
  <line x1="1140" y1="556" x2="1140" y2="599" class="flowP" marker-end="url(#arrP)"/>
  <text x="1148" y="582" class="lblm" fill="#c084fc">prompt / LLM</text>

  <!-- ===================== legend ===================== -->
  <g transform="translate(70,628)">
    <rect x="0" y="0" width="430" height="64" rx="12" fill="#0d1320" stroke="#222d44"/>
    <text x="16" y="24" class="grp">LEGEND</text>
    <line x1="16" y1="42" x2="42" y2="42" class="flow" marker-end="url(#arr)"/>
    <text x="50" y="46" class="sub">Kafka topic flow</text>
    <line x1="170" y1="42" x2="196" y2="42" class="flowA" marker-end="url(#arrA)"/>
    <text x="204" y="46" class="sub">DB read / write</text>
    <line x1="312" y1="42" x2="338" y2="42" class="flowP" marker-end="url(#arrP)"/>
    <text x="346" y="46" class="sub">LLM call</text>
    <circle cx="20" cy="24" r="0" fill="none"/>
    <circle cx="240" cy="20" r="5" fill="#28e68c"/><text x="250" y="24" class="sub">allowed</text>
    <circle cx="312" cy="20" r="5" fill="#f5c32d"/><text x="322" y="24" class="sub">review</text>
    <circle cx="378" cy="20" r="5" fill="#f74856"/><text x="388" y="24" class="sub">blocked</text>
  </g>
</svg>
